<svg xmlns="http://www.w3.org/2000/svg" width="141.732" height="141.732" viewBox="0 0 141.732 141.732">
  <path d="M103.161 46.009H116.752V21.106h-44.62v44.47h8V46.009h11.716l19.942 19.567h11.311l-19.94-19.567zm-23.03-8v-8.902h28.62v8.902h-28.62z"/>
  <path d="M62.952 59.6V21.106h-44.62v44.62h39.434l.226.226 4.977 4.977h11.23L62.952 59.6zm-36.62-1.873v-28.62h28.62V51.6L42.731 39.378l-5.657 5.656 12.691 12.692H26.332zM18.855 75.454v8h36.792v10.311H18.332v8h37.315v10.308H18.855v8h44.792V75.454zM113.761 80.036l-41.63-5.103v45.661l48.792-5.98v-33.7l-7.162-.878zm-.838 27.497l-32.792 4.02V83.975l32.792 4.02v19.538z"/>
  <path fill="#FF5050" d="M80.131 29.106h28.62v8.902h-28.62zM26.332 57.727V29.106h28.62V51.6L42.731 39.378l-5.657 5.656 12.691 12.693zM112.923 107.533l-32.792 4.02V83.975l32.792 4.019z"/>
</svg>
